<?xml version="1.0" standalone="no"?>
<!DOCTYPE svg PUBLIC "-//W3C//DTD SVG 1.1//EN" "http://www.w3.org/Graphics/SVG/1.1/DTD/svg11.dtd" >
<svg xmlns="http://www.w3.org/2000/svg" xmlns:xlink="http://www.w3.org/1999/xlink" version="1.1">
<metadata>
Created by FontForge 20170910 at Mon Feb 21 15:52:04 2005
 By Jimmy Wärting
Copyright (c) 1990 Neufville SL, Copyright (c) 1990-2000 ParaType, Inc. All Rights Reserved. Futura is a registered trade mark of Neufville SL.
</metadata>
<defs>
<font id="FuturaFuturisLightC" horiz-adv-x="548" >
  <font-face 
    font-family="FuturaFuturisLightC"
    font-weight="300"
    font-stretch="normal"
    units-per-em="1000"
    panose-1="0 0 4 0 0 0 0 0 0 0"
    ascent="776"
    descent="-224"
    x-height="434"
    cap-height="700"
    bbox="-406 -224 1147 851"
    underline-thickness="50"
    underline-position="-100"
    stemh="48"
    stemv="60"
    unicode-range="U+0020-2122"
  />
<missing-glyph horiz-adv-x="233" 
 />
    <glyph glyph-name=".notdef" horiz-adv-x="233" 
 />
    <glyph glyph-name="space" unicode=" " horiz-adv-x="233" 
 />
    <glyph glyph-name="space" unicode="&#xa0;" horiz-adv-x="233" 
 />
    <glyph glyph-name="exclam" unicode="!" horiz-adv-x="232" 
d="M86 140v560h60v-560h-60zM70 35c0 26 20 46 46 46s46 -20 46 -46s-20 -46 -46 -46s-46 20 -46 46z" />
    <glyph glyph-name="quotedbl" unicode="&#x22;" horiz-adv-x="338" 
d="M148 700l-29 -203h-42l-27 203h98zM288 700l-29 -203h-42l-27 203h98z" />
    <glyph glyph-name="numbersign" unicode="#" horiz-adv-x="796" 
d="M491 40h-56l25 145h-181l-25 -145h-56l25 145h-135l12 68h135l33 194h-135l12 68h135l25 145h56l-25 -145h181l25 145h56l-25 -145h135l-12 -68h-135l-33 -194h135l-12 -68h-135zM291 253h181l33 194h-181z" />
    <glyph glyph-name="dollar" unicode="$" horiz-adv-x="521" 
d="M285 -18v-101h-54v101c-77 5 -153 45 -203 155l64 32c16 -43 61 -128 169 -128c104 0 146 84 146 149c0 99 -82 128 -158 165c-111 54 -180 101 -180 200c0 120 101 156 162 162v88h54v-88c53 -3 118 -26 159 -105l-55 -32c-14 31 -46 80 -125 80
c-100 0 -123 -64 -123 -103c0 -79 79 -113 158 -150c74 -34 180 -81 180 -213c0 -113 -80 -203 -194 -212z" />
    <glyph glyph-name="percent" unicode="%" horiz-adv-x="790" 
d="M150 -21l413 742h49l-413 -742h-49zM185 440c58 0 105 50 105 113s-47 113 -105 113s-105 -50 -105 -113s47 -113 105 -113zM25 553c0 89 71 160 160 160s160 -71 160 -160s-71 -160 -160 -160s-160 71 -160 160zM445 162c0 89 71 160 160 160s160 -71 160 -160
s-71 -160 -160 -160s-160 71 -160 160zM605 49c58 0 105 50 105 113s-47 113 -105 113s-105 -50 -105 -113s47 -113 105 -113z" />
    <glyph glyph-name="ampersand" unicode="&#x26;" horiz-adv-x="625" 
d="M544 0l-80 101c-13 -16 -40 -47 -68 -70c-49 -41 -87 -49 -143 -49c-151 0 -207 111 -207 192c0 112 75 168 175 232c-41 48 -82 95 -82 156c0 87 77 138 153 138c97 0 138 -67 138 -137c0 -64 -41 -107 -128 -169l167 -209l94 111l42 -34l-102 -120l111 -142h-70z
M430 142l-177 223c-90 -63 -143 -101 -143 -191c0 -73 61 -144 145 -144c63 0 94 25 175 112zM271 433c64 40 97 73 97 133c0 41 -30 86 -79 86c-42 0 -89 -29 -89 -89c0 -47 40 -99 71 -130z" />
    <glyph glyph-name="quotesingle" unicode="'" horiz-adv-x="198" 
d="M148 700l-29 -203h-42l-27 203h98z" />
    <glyph glyph-name="parenleft" unicode="(" horiz-adv-x="218" 
d="M190 -210l-48 -13c-57 144 -93 326 -93 486c0 159 36 341 93 485l48 -13c-64 -207 -77 -369 -77 -472c0 -104 13 -266 77 -473z" />
    <glyph glyph-name="parenright" unicode=")" horiz-adv-x="218" 
d="M28 735l48 13c57 -144 93 -326 93 -485c0 -160 -36 -342 -93 -486l-48 13c71 229 77 388 77 473c0 84 -6 243 -77 472z" />
    <glyph glyph-name="asterisk" unicode="*" horiz-adv-x="407" 
d="M179 735h49v-126l108 63l25 -42l-108 -63l108 -63l-25 -42l-108 63v-126h-49v126l-108 -63l-25 42l108 63l-108 63l25 42l108 -63v126z" />
    <glyph glyph-name="plus" unicode="+" horiz-adv-x="600" 
d="M50 322v56h222v222h56v-222h222v-56h-222v-222h-56v222h-222z" />
    <glyph glyph-name="comma" unicode="," horiz-adv-x="253" 
d="M46 -134l91 246l70 -33l-125 -230z" />
    <glyph glyph-name="hyphenminus" horiz-adv-x="308" 
d="M42 288h224v-60h-224v60z" />
    <glyph glyph-name="period" unicode="." horiz-adv-x="232" 
d="M70 35c0 26 20 46 46 46s46 -20 46 -46s-20 -46 -46 -46s-46 20 -46 46z" />
    <glyph glyph-name="slash" unicode="/" horiz-adv-x="476" 
d="M21 -210l378 945h56l-378 -945h-56z" />
    <glyph glyph-name="zero" unicode="0" 
d="M274 -20c-47 0 -221 3 -221 370c0 365 173 370 221 370s221 -5 221 -370c0 -367 -174 -370 -221 -370zM274 36c80 0 153 66 153 314c0 214 -55 314 -153 314s-153 -100 -153 -314c0 -248 73 -314 153 -314z" />
    <glyph glyph-name="one" unicode="1" 
d="M265 0v644h-119l27 56h160v-700h-68z" />
    <glyph glyph-name="two" unicode="2" 
d="M487 56v-56h-437l167 179c164 176 206 230 206 326c0 83 -43 159 -134 159c-111 0 -165 -94 -163 -189h-68c1 121 70 245 236 245c123 0 197 -92 197 -216c0 -71 -23 -130 -97 -220c-57 -70 -115 -122 -208 -228h301z" />
    <glyph glyph-name="three" unicode="3" 
d="M50 175h67c1 -54 33 -139 148 -139c92 0 158 61 158 150c0 137 -121 149 -159 151h-31v56c12 -1 23 -1 35 0c81 4 138 46 138 132c0 87 -57 139 -139 139c-103 0 -129 -82 -136 -134h-63c6 75 52 190 207 190c113 0 194 -67 194 -186c0 -54 -11 -129 -112 -167v-2
c47 -11 134 -50 134 -175c0 -126 -95 -210 -228 -210c-144 0 -210 97 -213 195z" />
    <glyph glyph-name="four" unicode="4" 
d="M340 0v165h-315l363 555h16v-499h74v-56h-74v-165h-64zM340 221v337l-215 -337h215z" />
    <glyph glyph-name="five" unicode="5" 
d="M454 644h-227l-52 -215c28 13 59 21 90 21c106 0 216 -71 216 -226c0 -147 -95 -244 -229 -244c-76 0 -155 28 -212 138l52 29c52 -97 114 -111 156 -111c117 0 165 91 165 191c0 34 -8 167 -159 167c-32 0 -93 -2 -144 -52l-18 5l84 353h278v-56z" />
    <glyph glyph-name="six" unicode="6" 
d="M350 720l54 -32l-205 -293c27 14 51 19 85 19c120 0 207 -86 207 -205c0 -85 -47 -229 -216 -229c-136 0 -218 87 -218 217c0 94 39 148 74 200zM274 36c102 0 149 78 149 166c0 99 -63 156 -149 156s-149 -58 -149 -156c0 -87 47 -166 149 -166z" />
    <glyph glyph-name="seven" unicode="7" 
d="M100 5l311 639h-347v56h441l-350 -720z" />
    <glyph glyph-name="eight" unicode="8" 
d="M348 377v-2c86 -21 140 -96 140 -181c0 -122 -82 -214 -214 -214c-135 0 -214 91 -214 214c0 103 68 163 140 181v2c-50 15 -115 59 -115 161c0 137 108 182 189 182s189 -45 189 -182c0 -102 -65 -146 -115 -161zM274 400c71 0 126 55 126 132c0 64 -34 132 -126 132
c-103 0 -126 -87 -126 -132c0 -77 59 -132 126 -132zM274 36c92 0 148 68 148 157c0 87 -61 151 -148 151s-148 -64 -148 -151c0 -89 56 -157 148 -157z" />
    <glyph glyph-name="nine" unicode="9" 
d="M198 -20l-54 32l205 293c-27 -14 -51 -19 -85 -19c-120 0 -207 86 -207 205c0 85 47 229 216 229c136 0 218 -87 218 -217c0 -94 -39 -148 -74 -200zM274 664c-102 0 -149 -78 -149 -166c0 -99 63 -156 149 -156s149 58 149 156c0 87 -47 166 -149 166z" />
    <glyph glyph-name="colon" unicode=":" horiz-adv-x="232" 
d="M70 399c0 26 20 46 46 46s46 -20 46 -46s-20 -46 -46 -46s-46 20 -46 46zM70 35c0 26 20 46 46 46s46 -20 46 -46s-20 -46 -46 -46s-46 20 -46 46z" />
    <glyph glyph-name="semicolon" unicode=";" horiz-adv-x="253" 
d="M108 399c0 26 20 46 46 46s46 -20 46 -46s-20 -46 -46 -46s-46 20 -46 46zM46 -134l91 246l70 -33l-125 -230z" />
    <glyph glyph-name="less" unicode="&#x3c;" horiz-adv-x="500" 
d="M50 370l400 200v-56l-332 -164l332 -164v-56l-400 200v40z" />
    <glyph glyph-name="equal" unicode="=" horiz-adv-x="600" 
d="M50 388v56h500v-56h-500zM50 256v56h500v-56h-500z" />
    <glyph glyph-name="greater" unicode="&#x3e;" horiz-adv-x="500" 
d="M450 330l-400 -200v56l332 164l-332 164v56l400 -200v-40z" />
    <glyph glyph-name="question" unicode="?" horiz-adv-x="459" 
d="M108 538h-59c1 72 40 182 186 182c103 0 175 -60 175 -162c0 -93 -53 -127 -145 -177c-72 -39 -115 -63 -115 -117c0 -25 14 -74 87 -74c77 0 93 54 93 85h55c0 -51 -25 -141 -147 -141c-87 0 -152 51 -152 123c0 95 67 127 141 168c91 50 115 73 115 135
c0 101 -85 104 -107 104c-103 0 -124 -79 -127 -126zM182 35c0 26 20 46 46 46s46 -20 46 -46s-20 -46 -46 -46s-46 20 -46 46z" />
    <glyph glyph-name="at" unicode="@" horiz-adv-x="878" 
d="M638 530l-56 -259c-11 -52 18 -71 43 -71c53 0 129 54 129 170c0 190 -146 294 -320 294c-193 0 -309 -145 -309 -314c0 -223 170 -322 319 -322c74 0 125 26 156 46l29 -44c-62 -37 -115 -50 -185 -50c-213 0 -380 131 -380 370c0 220 164 370 370 370
c298 0 380 -220 380 -350c0 -137 -102 -218 -201 -218c-62 0 -79 38 -86 62c-27 -30 -67 -62 -136 -62c-85 0 -147 54 -147 154c0 110 85 237 214 237c62 0 91 -21 111 -55l9 42h60zM402 200c102 0 146 123 146 200c0 52 -25 95 -83 95c-99 0 -156 -100 -156 -187
c0 -69 34 -108 93 -108z" />
    <glyph glyph-name="A" unicode="A" horiz-adv-x="650" 
d="M11 0l314 720l314 -720h-70l-97 228h-294l-97 -228h-70zM202 284h246l-123 287z" />
    <glyph glyph-name="B" unicode="B" horiz-adv-x="564" 
d="M88 700h144c78 0 227 -9 227 -166c0 -74 -45 -130 -105 -153v-2c91 -6 161 -73 161 -179c0 -157 -131 -206 -243 -200h-184v700zM156 401h89c15 0 144 1 144 130c0 54 -31 113 -143 113h-90v-243zM156 56h116c134 0 173 77 173 144c0 146 -154 145 -176 145h-113v-289z
" />
    <glyph glyph-name="C" unicode="C" horiz-adv-x="700" 
d="M672 140v-78c-80 -61 -176 -82 -255 -82c-214 0 -361 163 -361 370c0 219 163 370 361 370c72 0 159 -12 255 -84v-79c-90 88 -182 107 -253 107c-155 0 -291 -132 -291 -314c0 -168 119 -314 290 -314c96 0 187 41 254 104z" />
    <glyph glyph-name="D" unicode="D" horiz-adv-x="700" 
d="M88 0v700h174c250 0 382 -160 382 -350c0 -147 -89 -350 -382 -350h-174zM156 56h99c227 0 317 137 317 294c0 179 -125 294 -317 294h-99v-588z" />
    <glyph glyph-name="E" unicode="E" horiz-adv-x="519" 
d="M88 0v700h375v-56h-307v-224h296v-56h-296v-308h307v-56h-375z" />
    <glyph glyph-name="F" unicode="F" horiz-adv-x="450" 
d="M88 0v700h330v-56h-262v-224h255v-56h-255v-364h-68z" />
    <glyph glyph-name="G" unicode="G" horiz-adv-x="815" 
d="M435 340h324c-1 -175 -92 -360 -337 -360c-218 0 -366 146 -366 367c0 226 146 373 348 373c51 0 206 -6 309 -161l-52 -38c-42 62 -123 143 -258 143c-167 0 -275 -140 -275 -317c0 -183 115 -311 292 -311c169 0 266 125 267 248h-252v56z" />
    <glyph glyph-name="H" unicode="H" horiz-adv-x="715" 
d="M88 0v700h68v-287h403v287h68v-700h-68v357h-403v-357h-68z" />
    <glyph glyph-name="I" unicode="I" horiz-adv-x="244" 
d="M88 0v700h68v-700h-68z" />
    <glyph glyph-name="J" unicode="J" horiz-adv-x="402" 
d="M0 47l43 45c37 -49 76 -56 104 -56c81 0 99 56 99 152v512h68v-516c0 -63 2 -204 -170 -204c-59 0 -100 19 -144 67z" />
    <glyph glyph-name="K" unicode="K" horiz-adv-x="571" 
d="M88 0v700h68v-325l313 325h84l-332 -339l339 -361h-91l-313 340v-340h-68z" />
    <glyph glyph-name="L" unicode="L" horiz-adv-x="393" 
d="M88 0v700h68v-644h226v-56h-294z" />
    <glyph glyph-name="M" unicode="M" horiz-adv-x="858" 
d="M42 0l95 728l292 -624l292 624l95 -728h-63l-67 518l-257 -546l-257 546l-67 -518h-63z" />
    <glyph glyph-name="N" unicode="N" horiz-adv-x="775" 
d="M88 0v728l531 -585v557h68v-728l-531 585v-557h-68z" />
    <glyph glyph-name="O" unicode="O" horiz-adv-x="868" 
d="M434 -20c-208 0 -378 149 -378 370s170 370 378 370s378 -149 378 -370s-170 -370 -378 -370zM434 36c171 0 306 130 306 314s-135 314 -306 314s-306 -130 -306 -314s135 -314 306 -314z" />
    <glyph glyph-name="P" unicode="P" horiz-adv-x="538" 
d="M88 0v700h194c75 0 210 -17 210 -185c0 -169 -136 -186 -210 -186h-126v-329h-68zM156 644v-259h123c50 0 143 11 143 130c0 131 -117 129 -143 129h-123z" />
    <glyph glyph-name="Q" unicode="Q" horiz-adv-x="868" 
d="M785 -49h-70l-73 85c-58 -37 -117 -56 -208 -56c-211 0 -378 149 -378 370s167 370 378 370c208 0 378 -148 378 -370c0 -106 -40 -214 -128 -282zM519 259l123 -143c94 80 98 204 98 234c0 184 -136 314 -306 314c-171 0 -306 -130 -306 -314s135 -314 306 -314
c82 0 133 25 167 47l-152 176h70z" />
    <glyph glyph-name="R" unicode="R" horiz-adv-x="516" 
d="M88 0v700h187c41 0 199 -11 199 -189c0 -86 -47 -177 -220 -188l248 -323h-80l-240 322h-26v-322h-68zM156 378h70c157 0 178 77 178 133c0 116 -81 133 -162 133h-86v-266z" />
    <glyph glyph-name="S" unicode="S" horiz-adv-x="521" 
d="M443 614l-54 -32c-17 39 -55 82 -126 82c-98 0 -125 -65 -125 -107c0 -80 79 -112 159 -150c75 -35 182 -80 182 -213c0 -119 -91 -214 -225 -214c-138 0 -201 97 -226 157l64 32c20 -59 71 -133 168 -133c88 0 147 67 147 154c0 89 -63 121 -157 165
c-86 40 -182 92 -182 200c0 62 35 165 192 165c53 0 139 -10 183 -106z" />
    <glyph glyph-name="T" unicode="T" horiz-adv-x="464" 
d="M198 0v644h-187v56h442v-56h-187v-644h-68z" />
    <glyph glyph-name="U" unicode="U" horiz-adv-x="650" 
d="M505 700h68v-439c0 -57 -6 -281 -248 -281s-248 224 -248 281v439h68v-449c0 -27 2 -215 180 -215s180 188 180 215v449z" />
    <glyph glyph-name="V" unicode="V" horiz-adv-x="568" 
d="M284 -28l-273 728h74l199 -553l199 553h74z" />
    <glyph glyph-name="W" unicode="W" horiz-adv-x="938" 
d="M469 556l-213 -584l-249 728h77l173 -553l212 573l212 -573l173 553h77l-249 -728z" />
    <glyph glyph-name="X" unicode="X" horiz-adv-x="506" 
d="M7 0l211 357l-195 343h76l154 -286l154 286h76l-195 -343l211 -357h-76l-170 304l-170 -304h-76z" />
    <glyph glyph-name="Y" unicode="Y" horiz-adv-x="526" 
d="M229 0v322l-222 378h76l180 -316l180 316h76l-222 -378v-322h-68z" />
    <glyph glyph-name="Z" unicode="Z" horiz-adv-x="553" 
d="M56 700h469l-399 -644h399v-56h-511l400 644h-358v56z" />
    <glyph glyph-name="bracketleft" unicode="[" horiz-adv-x="320" 
d="M292 -210h-204v945h204v-56h-140v-833h140v-56z" />
    <glyph glyph-name="backslash" unicode="\" horiz-adv-x="476" 
d="M455 -210h-56l-378 945h56z" />
    <glyph glyph-name="bracketright" unicode="]" horiz-adv-x="320" 
d="M28 735h204v-945h-204v56h140v833h-140v56z" />
    <glyph glyph-name="asciicircum" unicode="^" horiz-adv-x="480" 
d="M240 666l-132 -166h-68l156 200h88l156 -200h-68z" />
    <glyph glyph-name="underscore" unicode="_" horiz-adv-x="500" 
d="M0 -154h500v-56h-500v56z" />
    <glyph glyph-name="grave" unicode="`" horiz-adv-x="250" 
d="M18 637h98l74 -126h-56z" />
    <glyph glyph-name="a" unicode="a" horiz-adv-x="562" 
d="M432 357v77h56v-434h-56v74c-35 -63 -98 -92 -160 -92c-138 0 -226 104 -226 235c0 135 92 235 227 235c49 0 116 -15 159 -95zM272 30c92 0 160 73 160 187c0 102 -62 187 -158 187c-95 0 -164 -79 -164 -187c0 -101 62 -187 162 -187z" />
    <glyph glyph-name="b" unicode="b" horiz-adv-x="562" 
d="M74 735h60v-371c47 79 120 88 158 88c133 0 224 -95 224 -235c0 -132 -85 -235 -222 -235c-77 0 -133 39 -164 92v-74h-56v735zM294 30c100 0 158 82 158 187c0 87 -46 187 -166 187c-94 0 -156 -85 -156 -187c0 -122 80 -187 164 -187z" />
    <glyph glyph-name="c" unicode="c" horiz-adv-x="457" 
d="M429 84v-63c-28 -17 -72 -39 -134 -39c-143 0 -249 97 -249 235c0 139 105 235 248 235c72 0 112 -21 135 -37v-59c-58 41 -95 48 -131 48c-119 0 -188 -85 -188 -187c0 -114 81 -187 182 -187c58 0 104 25 137 54z" />
    <glyph glyph-name="d" unicode="d" horiz-adv-x="562" 
d="M488 0h-56v74c-35 -63 -98 -92 -160 -92c-111 0 -226 76 -226 235c0 134 94 235 228 235c38 0 110 -9 154 -88v371h60v-735zM272 30c93 0 160 73 160 187c0 102 -63 187 -158 187c-114 0 -164 -102 -164 -187c0 -102 62 -187 162 -187z" />
    <glyph glyph-name="e" unicode="e" horiz-adv-x="515" 
d="M423 137l46 -23c-36 -72 -97 -132 -200 -132c-145 0 -223 118 -223 235c0 123 78 235 223 235c149 0 200 -128 200 -211v-29h-359c-2 -85 52 -182 159 -182c35 0 106 6 154 107zM115 260h294c-2 70 -51 144 -139 144c-82 0 -143 -59 -155 -144z" />
    <glyph glyph-name="f" unicode="f" horiz-adv-x="260" 
d="M88 0v386h-70v48h70v194c0 52 17 116 100 116c16 0 40 -2 58 -9v-51c-17 9 -31 12 -46 12c-47 0 -52 -49 -52 -70v-192h98v-48h-98v-386h-60z" />
    <glyph glyph-name="g" unicode="g" horiz-adv-x="562" 
d="M65 -81h66c17 -67 80 -95 142 -95c67 0 155 29 155 190v53c-12 -19 -56 -85 -156 -85c-110 0 -226 76 -226 235c0 134 91 235 228 235c46 0 117 -14 158 -95v77h56v-420c0 -143 -75 -238 -215 -238c-142 0 -192 77 -208 143zM272 30c92 0 160 73 160 187
c0 102 -62 187 -158 187c-114 0 -164 -102 -164 -187c0 -101 62 -187 162 -187z" />
    <glyph glyph-name="h" unicode="h" horiz-adv-x="505" 
d="M74 0v735h60v-373c20 39 64 90 146 90c148 0 151 -145 151 -174v-278h-60v270c0 52 -6 134 -98 134c-81 0 -139 -77 -139 -178v-226h-60z" />
    <glyph glyph-name="i" unicode="i" horiz-adv-x="208" 
d="M74 434h60v-434h-60v434zM58 581c0 26 20 46 46 46s46 -20 46 -46s-20 -46 -46 -46s-46 20 -46 46z" />
    <glyph glyph-name="j" unicode="j" horiz-adv-x="208" 
d="M74 434h60v-644h-60v644zM58 581c0 26 20 46 46 46s46 -20 46 -46s-20 -46 -46 -46s-46 20 -46 46z" />
    <glyph glyph-name="k" unicode="k" horiz-adv-x="461" 
d="M74 0v735h60v-477l194 176h82l-213 -187l253 -247h-87l-209 210l-20 -17v-193h-60z" />
    <glyph glyph-name="l" unicode="l" horiz-adv-x="208" 
d="M74 0v735h60v-735h-60z" />
    <glyph glyph-name="m" unicode="m" horiz-adv-x="760" 
d="M134 359c47 81 104 93 147 93c70 0 109 -44 120 -91c46 86 117 91 152 91c132 0 133 -132 133 -166v-286h-60v286c0 38 -5 118 -86 118c-69 0 -130 -64 -130 -172v-232h-60v283c0 47 -8 121 -84 121c-78 0 -132 -87 -132 -172v-232h-60v434h60v-75z" />
    <glyph glyph-name="n" unicode="n" horiz-adv-x="505" 
d="M74 0v434h60v-72c20 39 64 90 146 90c148 0 151 -145 151 -174v-278h-60v270c0 52 -6 134 -98 134c-81 0 -139 -77 -139 -178v-226h-60z" />
    <glyph glyph-name="o" unicode="o" horiz-adv-x="564" 
d="M282 -18c-139 0 -236 100 -236 235s97 235 236 235s236 -100 236 -235s-97 -235 -236 -235zM282 30c93 0 172 74 172 187s-79 187 -172 187s-172 -74 -172 -187s79 -187 172 -187z" />
    <glyph glyph-name="p" unicode="p" horiz-adv-x="562" 
d="M74 434h56v-77c27 50 76 95 162 95c133 0 224 -95 224 -235c0 -132 -85 -235 -222 -235c-91 0 -138 53 -160 85v-277h-60v644zM294 30c100 0 158 82 158 187c0 87 -46 187 -166 187c-94 0 -156 -85 -156 -187c0 -122 80 -187 164 -187z" />
    <glyph glyph-name="q" unicode="q" horiz-adv-x="562" 
d="M488 -210h-60v277c-12 -19 -56 -85 -156 -85c-111 0 -226 76 -226 235c0 134 94 235 228 235c46 0 117 -14 158 -95v77h56v-644zM272 30c93 0 160 73 160 187c0 102 -63 187 -158 187c-114 0 -164 -102 -164 -187c0 -102 62 -187 162 -187z" />
    <glyph glyph-name="r" unicode="r" horiz-adv-x="325" 
d="M74 0v434h60v-91c45 85 86 101 127 101c11 0 30 -1 53 -10l-18 -56c-9 5 -23 11 -43 11c-70 0 -119 -103 -119 -165v-224h-60z" />
    <glyph glyph-name="s" unicode="s" horiz-adv-x="382" 
d="M32 89l49 26c14 -43 50 -85 109 -85c66 0 91 43 91 86c0 54 -44 74 -103 92c-53 16 -126 37 -126 122c0 75 60 122 139 122c39 0 98 -11 135 -89l-45 -24c-17 41 -54 65 -95 65c-46 0 -74 -30 -74 -69c0 -55 49 -64 107 -82c71 -23 124 -58 124 -135
c0 -52 -33 -136 -159 -136c-39 0 -113 10 -152 107z" />
    <glyph glyph-name="t" unicode="t" horiz-adv-x="250" 
d="M88 0v386h-70v48h70v168h60v-168h84v-48h-84v-386h-60z" />
    <glyph glyph-name="u" unicode="u" horiz-adv-x="510" 
d="M376 434h60v-256c0 -39 -4 -196 -181 -196s-181 157 -181 196v256h60v-263c0 -54 15 -141 121 -141s121 87 121 141v263z" />
    <glyph glyph-name="v" unicode="v" horiz-adv-x="434" 
d="M217 -22l-210 456h65l145 -329l145 329h65z" />
    <glyph glyph-name="w" unicode="w" horiz-adv-x="694" 
d="M347 340l-140 -362l-200 456h70l133 -315l137 358l137 -358l133 315h70l-200 -456z" />
    <glyph glyph-name="x" unicode="x" horiz-adv-x="417" 
d="M11 0l161 223l-154 211h77l116 -169l108 169h70l-144 -210l161 -224h-76l-123 182l-119 -182h-77z" />
    <glyph glyph-name="y" unicode="y" horiz-adv-x="453" 
d="M11 434h68l163 -367l139 367h61l-256 -644h-65l90 214z" />
    <glyph glyph-name="z" unicode="z" horiz-adv-x="425" 
d="M38 434h355l-273 -386h280v-48h-382l277 386h-257v48z" />
    <glyph glyph-name="braceleft" unicode="{" horiz-adv-x="331" 
d="M50 219v53c92 18 94 122 94 151c0 19 -1 39 -2 58s-2 37 -2 56c0 69 19 155 141 168v-46c-70 -8 -74 -75 -74 -101c0 -52 3 -43 3 -117c0 -59 -5 -149 -118 -193v-5c113 -44 118 -134 118 -193c0 -74 -3 -65 -3 -117c0 -26 4 -93 74 -101v-46c-122 13 -141 99 -141 168
c0 19 1 37 2 56s2 39 2 58c0 29 -2 133 -94 151z" />
    <glyph glyph-name="bar" unicode="|" horiz-adv-x="156" 
d="M50 -224v1053h56v-1053h-56z" />
    <glyph glyph-name="braceright" unicode="}" horiz-adv-x="331" 
d="M281 272v-53c-92 -18 -94 -122 -94 -151c0 -19 1 -39 2 -58s2 -37 2 -56c0 -69 -19 -155 -141 -168v46c70 8 74 75 74 101c0 52 -3 43 -3 117c0 59 5 149 118 193v5c-113 44 -118 134 -118 193c0 74 3 65 3 117c0 26 -4 93 -74 101v46c122 -13 141 -99 141 -168
c0 -19 -1 -37 -2 -56s-2 -39 -2 -58c0 -29 2 -133 94 -151z" />
    <glyph glyph-name="asciitilde" unicode="~" horiz-adv-x="600" 
d="M50 312v56c29 30 69 50 110 50s87 -18 145 -40c66 -25 103 -40 135 -40c28 0 65 7 110 50v-56c-29 -30 -69 -50 -110 -50s-87 18 -145 40c-66 25 -103 40 -135 40c-28 0 -65 -7 -110 -50z" />
    <glyph glyph-name="afii10051" unicode="&#x402;" horiz-adv-x="689" 
d="M200 0v644h-189v56h473v-56h-216v-241c58 18 103 22 136 22c140 0 239 -80 239 -218c0 -155 -102 -209 -245 -207v56h39c62 0 136 38 136 151c0 112 -76 162 -170 162c-35 0 -76 -2 -135 -26v-343h-68z" />
    <glyph glyph-name="afii10052" unicode="&#x403;" horiz-adv-x="407" 
d="M88 0v700h308v-56h-240v-644h-68zM124 740l102 111h98l-134 -111h-66z" />
    <glyph glyph-name="quotesinglbase" unicode="&#x201a;" horiz-adv-x="253" 
d="M46 -134l91 246l70 -33l-125 -230z" />
    <glyph glyph-name="afii10100" unicode="&#x453;" horiz-adv-x="327" 
d="M74 0v434h242v-48h-182v-386h-60zM140 511l74 126h98l-116 -126h-56z" />
    <glyph glyph-name="quotedblbase" unicode="&#x201e;" horiz-adv-x="379" 
d="M46 -127l105 232l63 -31l-133 -218zM165 -134l105 232l63 -31l-133 -218z" />
    <glyph glyph-name="ellipsis" unicode="&#x2026;" horiz-adv-x="696" 
d="M70 35c0 26 20 46 46 46s46 -20 46 -46s-20 -46 -46 -46s-46 20 -46 46zM302 35c0 26 20 46 46 46s46 -20 46 -46s-20 -46 -46 -46s-46 20 -46 46zM534 35c0 26 20 46 46 46s46 -20 46 -46s-20 -46 -46 -46s-46 20 -46 46z" />
    <glyph glyph-name="dagger" unicode="&#x2020;" horiz-adv-x="540" 
d="M236 -210v651h-190v56h190v238h68v-238h190v-56h-190v-651h-68z" />
    <glyph glyph-name="daggerdbl" unicode="&#x2021;" horiz-adv-x="540" 
d="M304 28v-238h-68v238h-190v56h190v357h-190v56h190v238h68v-238h190v-56h-190v-357h190v-56h-190z" />
    <glyph glyph-name="accent" horiz-adv-x="2" 
d="M-312 511l74 126h98l-116 -126h-56z" />
    <glyph glyph-name="perthousand" unicode="&#x2030;" horiz-adv-x="1172" 
d="M150 -21l413 742h49l-413 -742h-49zM185 441c58 0 105 50 105 113s-47 113 -105 113s-105 -50 -105 -113s47 -113 105 -113zM25 554c0 89 71 160 160 160s160 -71 160 -160s-71 -160 -160 -160s-160 71 -160 160zM445 162c0 89 71 160 160 160s160 -71 160 -160
s-71 -160 -160 -160s-160 71 -160 160zM605 49c58 0 105 50 105 113s-47 113 -105 113s-105 -50 -105 -113s47 -113 105 -113zM827 162c0 89 71 160 160 160s160 -71 160 -160s-71 -160 -160 -160s-160 71 -160 160zM987 49c58 0 105 50 105 113s-47 113 -105 113
s-105 -50 -105 -113s47 -113 105 -113z" />
    <glyph glyph-name="afii10058" unicode="&#x409;" horiz-adv-x="956" 
d="M164 700h389v-294h116c201 0 241 -109 241 -201c0 -198 -193 -205 -270 -205h-155v644h-253v-377c0 -138 -18 -273 -170 -273c-6 0 -28 0 -55 6v56c10 -2 26 -5 38 -5c106 0 119 98 119 213v436zM553 56h98c157 0 189 81 189 149c0 148 -144 145 -172 145h-115v-294z" />
    <glyph glyph-name="guilsinglleft" unicode="&#x2039;" horiz-adv-x="281" 
d="M42 220l150 211l43 -28l-131 -183l131 -183l-43 -28z" />
    <glyph glyph-name="afii10059" unicode="&#x40a;" horiz-adv-x="1030" 
d="M88 0v700h68v-294h403v294h68v-294h116c201 0 241 -109 241 -201c0 -198 -193 -205 -270 -205h-155v350h-403v-350h-68zM627 56h98c157 0 189 81 189 149c0 148 -144 145 -172 145h-115v-294z" />
    <glyph glyph-name="afii10061" unicode="&#x40c;" horiz-adv-x="571" 
d="M88 0v700h68v-325l313 325h84l-332 -339l339 -361h-91l-313 340v-340h-68zM206 740l102 111h98l-134 -111h-66z" />
    <glyph glyph-name="afii10060" unicode="&#x40b;" horiz-adv-x="711" 
d="M200 0v644h-189v56h474v-56h-217v-245c111 8 93 7 157 7c200 0 216 -81 216 -178v-228h-68v212c0 143 -77 138 -159 138c-54 0 -41 1 -146 -7v-343h-68z" />
    <glyph glyph-name="afii10145" unicode="&#x40f;" horiz-adv-x="717" 
d="M88 0v700h68v-644h405v644h68v-700h-239v-170h-63v170h-239z" />
    <glyph glyph-name="afii10099" unicode="&#x452;" horiz-adv-x="486" 
d="M73 0v570h-66v48h66v117h60v-117h224v-48h-224v-208c13 24 53 90 146 90c154 0 161 -173 161 -227c0 -152 -66 -242 -164 -342l-35 33c108 135 135 201 135 317c0 35 -6 171 -104 171c-54 0 -139 -50 -139 -178v-226h-60z" />
    <glyph glyph-name="quoteleft" unicode="&#x2018;" horiz-adv-x="260" 
d="M214 705l-105 -232l-63 31l133 217z" />
    <glyph glyph-name="quoteright" unicode="&#x2019;" horiz-adv-x="260" 
d="M46 489l105 232l63 -31l-133 -217z" />
    <glyph glyph-name="quotedblleft" unicode="&#x201c;" horiz-adv-x="379" 
d="M214 705l-105 -232l-63 31l133 217zM333 698l-105 -232l-63 31l133 217z" />
    <glyph glyph-name="quotedblright" unicode="&#x201d;" horiz-adv-x="379" 
d="M46 489l105 232l63 -31l-133 -217zM165 482l105 232l63 -31l-133 -217z" />
    <glyph glyph-name="bullet" unicode="&#x2022;" horiz-adv-x="340" 
d="M50 332c0 66 54 120 120 120s120 -54 120 -120s-54 -120 -120 -120s-120 54 -120 120z" />
    <glyph glyph-name="endash" unicode="&#x2013;" horiz-adv-x="600" 
d="M50 228v56h500v-56h-500z" />
    <glyph glyph-name="emdash" unicode="&#x2014;" horiz-adv-x="820" 
d="M39 276h742v-48h-742v48z" />
    <glyph glyph-name="Accent" horiz-adv-x="2" 
d="M-406 740l102 111h98l-134 -111h-66z" />
    <glyph glyph-name="trademark" unicode="&#x2122;" horiz-adv-x="652" 
d="M120 420v224h-70v56h200v-56h-70v-224h-60zM431 509l61 191h66l44 -280h-62l-28 182l-59 -182h-44l-59 182l-28 -182h-62l44 280h66z" />
    <glyph glyph-name="afii10106" unicode="&#x459;" horiz-adv-x="687" 
d="M401 434v-176h86c57 0 165 -11 165 -129c0 -113 -95 -129 -166 -129h-145v386h-186v-259c0 -66 -29 -129 -144 -127v48c77 -2 84 50 84 115v271h306zM401 48h81c33 0 106 0 106 81c0 78 -74 81 -105 81h-82v-162z" />
    <glyph glyph-name="guilsinglright" unicode="&#x203a;" horiz-adv-x="281" 
d="M239 219l-150 -211l-43 28l131 183l-131 183l43 28z" />
    <glyph glyph-name="afii10107" unicode="&#x45a;" horiz-adv-x="724" 
d="M74 0v434h60v-176h244v176h60v-176h86c57 0 165 -11 165 -129c0 -113 -95 -129 -166 -129h-145v210h-244v-210h-60zM438 48h81c33 0 106 0 106 81c0 78 -74 81 -105 81h-82v-162z" />
    <glyph glyph-name="afii10109" unicode="&#x45c;" horiz-adv-x="428" 
d="M74 0v434h60v-194l194 194h72l-209 -202l226 -232h-77l-206 217v-217h-60zM149 511l74 126h98l-116 -126h-56z" />
    <glyph glyph-name="afii10108" unicode="&#x45b;" horiz-adv-x="504" 
d="M73 0v570h-66v48h66v117h60v-117h224v-48h-224v-208c20 39 64 90 146 90c148 0 151 -145 151 -174v-278h-60v270c0 52 -6 134 -98 134c-81 0 -139 -77 -139 -178v-226h-60z" />
    <glyph glyph-name="afii10193" unicode="&#x45f;" horiz-adv-x="498" 
d="M74 0v434h60v-386h230v386h60v-434h-147v-126h-56v126h-147z" />
    <glyph glyph-name="afii10062" unicode="&#x40e;" horiz-adv-x="561" 
d="M14 700h77l212 -417l189 417h69l-320 -700h-69l97 212zM280 740c-44 0 -113 14 -144 89l55 22c9 -29 34 -59 89 -59s80 30 89 59l55 -22c-4 -9 -8 -18 -14 -26c-34 -51 -89 -63 -130 -63z" />
    <glyph glyph-name="afii10110" unicode="&#x45e;" horiz-adv-x="453" 
d="M11 434h68l163 -367l139 367h61l-256 -644h-65l90 214zM226 518c-66 0 -125 39 -144 101l55 22c6 -24 25 -75 89 -75s83 51 89 75l55 -22c-19 -62 -78 -101 -144 -101z" />
    <glyph glyph-name="afii10057" unicode="&#x408;" horiz-adv-x="413" 
d="M88 47l43 45c37 -49 76 -56 104 -56c81 0 99 56 99 152v512h68v-516c0 -63 2 -204 -170 -204c-59 0 -100 19 -144 67z" />
    <glyph glyph-name="currency" unicode="&#xa4;" horiz-adv-x="660" 
d="M121 179c-32 40 -61 96 -61 171s29 131 61 171l-71 71l38 38l71 -71c40 32 96 61 171 61s131 -29 171 -61l71 71l38 -38l-71 -71c32 -40 61 -96 61 -171s-29 -131 -61 -171l71 -71l-38 -38l-71 71c-40 -32 -96 -61 -171 -61s-131 29 -171 61l-71 -71l-38 38zM116 350
c0 -119 95 -214 214 -214s214 95 214 214s-95 214 -214 214s-214 -95 -214 -214z" />
    <glyph glyph-name="afii10050" unicode="&#x490;" horiz-adv-x="407" 
d="M88 0v700h245v119h63v-175h-240v-644h-68z" />
    <glyph glyph-name="brokenbar" unicode="&#xa6;" horiz-adv-x="156" 
d="M50 429v400h56v-400h-56zM50 -224v400h56v-400h-56z" />
    <glyph glyph-name="section" unicode="&#xa7;" horiz-adv-x="472" 
d="M65 0h63c-2 -53 30 -105 112 -105c61 0 97 36 97 86c0 92 -81 107 -140 126c-57 18 -148 61 -148 175c0 76 47 133 113 156c-64 24 -87 79 -87 128c0 74 56 154 163 154c123 0 165 -101 163 -177h-63v18c0 40 -26 103 -98 103c-56 0 -101 -41 -101 -100
c0 -52 22 -79 116 -104c77 -20 168 -57 168 -172c0 -82 -55 -137 -116 -161c53 -20 94 -69 94 -142c0 -88 -67 -146 -163 -146c-144 0 -173 102 -173 161zM236 161c72 0 119 52 119 123c0 83 -61 122 -119 122c-69 0 -119 -53 -119 -122c0 -70 50 -123 119 -123z" />
    <glyph glyph-name="afii10023" unicode="&#x401;" horiz-adv-x="519" 
d="M88 0v700h375v-56h-307v-224h296v-56h-296v-308h307v-56h-375zM153 800c0 26 20 46 46 46s46 -20 46 -46s-20 -46 -46 -46s-46 20 -46 46zM314 800c0 26 20 46 46 46s46 -20 46 -46s-20 -46 -46 -46s-46 20 -46 46z" />
    <glyph glyph-name="copyright" unicode="&#xa9;" horiz-adv-x="840" 
d="M50 350c0 203 167 370 370 370s370 -167 370 -370s-167 -370 -370 -370s-370 167 -370 370zM106 350c0 -173 141 -314 314 -314s314 141 314 314s-141 314 -314 314s-314 -141 -314 -314zM572 156c-40 -23 -85 -37 -138 -37c-147 0 -227 115 -227 231
c0 120 88 231 227 231c49 0 86 -9 138 -38v-78c-45 29 -88 46 -138 46c-88 0 -143 -70 -143 -161c0 -95 56 -161 143 -161c49 0 92 14 138 43v-76z" />
    <glyph glyph-name="afii10053" unicode="&#x404;" horiz-adv-x="672" 
d="M637 112v-76c-79 -43 -154 -56 -220 -56c-217 0 -361 161 -361 370c0 232 156 370 362 370c74 0 144 -13 219 -58v-75c-63 51 -140 77 -217 77c-144 0 -285 -108 -290 -272h423v-56h-425c5 -176 139 -300 290 -300c87 0 164 37 219 76z" />
    <glyph glyph-name="guillemotleft" unicode="&#xab;" horiz-adv-x="434" 
d="M42 220l150 211l42 -28l-131 -183l131 -183l-42 -28zM196 220l150 211l42 -28l-131 -183l131 -183l-42 -28z" />
    <glyph glyph-name="logicalnot" unicode="&#xac;" horiz-adv-x="630" 
d="M50 228v56h500v-216h-60v160h-440z" />
    <glyph glyph-name="hyphen" unicode="-" horiz-adv-x="308" 
d="M42 288h224v-60h-224v60z" />
    <glyph glyph-name="hyphen" unicode="&#xad;" horiz-adv-x="308" 
d="M42 288h224v-60h-224v60z" />
    <glyph glyph-name="registered" unicode="&#xae;" horiz-adv-x="846" 
d="M53 350c0 203 167 370 370 370s370 -167 370 -370s-167 -370 -370 -370s-370 167 -370 370zM109 350c0 -173 141 -314 314 -314s314 141 314 314s-141 314 -314 314s-314 -141 -314 -314zM287 133v434h164c35 0 124 -14 124 -117c0 -74 -62 -115 -112 -115h-10l137 -202
h-82l-132 200h-19v-200h-70zM357 511v-122h60c68 0 83 27 83 61s-11 61 -73 61h-70z" />
    <glyph glyph-name="afii10056" unicode="&#x407;" horiz-adv-x="244" 
d="M88 0v700h68v-700h-68zM15 800c0 26 20 46 46 46s46 -20 46 -46s-20 -46 -46 -46s-46 20 -46 46zM137 800c0 26 20 46 46 46s46 -20 46 -46s-20 -46 -46 -46s-46 20 -46 46z" />
    <glyph glyph-name="degree" unicode="&#xb0;" horiz-adv-x="302" 
d="M39 609c0 62 50 112 112 112s112 -50 112 -112s-50 -112 -112 -112s-112 50 -112 112zM87 609c0 -34 30 -64 64 -64s64 30 64 64s-30 64 -64 64s-64 -30 -64 -64z" />
    <glyph glyph-name="plusminus" unicode="&#xb1;" horiz-adv-x="600" 
d="M50 418h222v222h56v-222h222v-56h-222v-192h-56v192h-222v56zM50 116h500v-56h-500v56z" />
    <glyph glyph-name="afii10055" unicode="&#x406;" horiz-adv-x="244" 
d="M88 0v700h68v-700h-68z" />
    <glyph glyph-name="afii10103" unicode="&#x456;" horiz-adv-x="208" 
d="M74 434h60v-434h-60v434zM58 581c0 26 20 46 46 46s46 -20 46 -46s-20 -46 -46 -46s-46 20 -46 46z" />
    <glyph glyph-name="afii10098" unicode="&#x491;" horiz-adv-x="327" 
d="M74 0v434h186v112h56v-160h-182v-386h-60z" />
    <glyph glyph-name="mu" unicode="&#xb5;" horiz-adv-x="506" 
d="M432 434v-434h-60v72c-36 -72 -94 -82 -119 -82s-83 10 -119 82v-282h-60v644h60v-218c0 -89 42 -178 119 -178s119 89 119 178v218h60z" />
    <glyph glyph-name="mu" unicode="&#x3bc;" horiz-adv-x="506" 
d="M432 434v-434h-60v72c-36 -72 -94 -82 -119 -82s-83 10 -119 82v-282h-60v644h60v-218c0 -89 42 -178 119 -178s119 89 119 178v218h60z" />
    <glyph glyph-name="paragraph" unicode="&#xb6;" horiz-adv-x="491" 
d="M205 -185v555c-92 3 -165 70 -165 165c0 96 74 161 165 165h62v-885h-62zM362 -185v885h62v-885h-62z" />
    <glyph glyph-name="periodcentered" unicode="&#xb7;" horiz-adv-x="232" 
d="M70 258c0 26 20 46 46 46s46 -20 46 -46s-20 -46 -46 -46s-46 20 -46 46z" />
    <glyph glyph-name="periodcentered" unicode="&#x2219;" horiz-adv-x="232" 
d="M70 258c0 26 20 46 46 46s46 -20 46 -46s-20 -46 -46 -46s-46 20 -46 46z" />
    <glyph glyph-name="afii10071" unicode="&#x451;" horiz-adv-x="515" 
d="M423 137l46 -23c-36 -72 -97 -132 -200 -132c-145 0 -223 118 -223 235c0 123 78 235 223 235c149 0 200 -128 200 -211v-29h-359c-2 -85 52 -182 159 -182c35 0 106 6 154 107zM115 260h294c-2 70 -51 144 -139 144c-82 0 -143 -59 -155 -144zM131 581c0 26 20 46 46 46
s46 -20 46 -46s-20 -46 -46 -46s-46 20 -46 46zM292 581c0 26 20 46 46 46s46 -20 46 -46s-20 -46 -46 -46s-46 20 -46 46z" />
    <glyph glyph-name="afii61352" unicode="&#x2116;" horiz-adv-x="1159" 
d="M88 0v728l531 -585v557h68v-728l-531 585v-557h-68zM942 105c-118 0 -175 89 -175 189s57 189 175 189s175 -89 175 -189s-57 -189 -175 -189zM942 153c85 0 119 74 119 141s-34 141 -119 141s-119 -74 -119 -141s34 -141 119 -141zM792 0v48h301v-48h-301z" />
    <glyph glyph-name="afii10101" unicode="&#x454;" horiz-adv-x="421" 
d="M344 247v-48h-234c6 -87 61 -169 181 -169c27 0 61 3 102 30v-56c-11 -5 -45 -22 -106 -22c-113 0 -241 68 -241 235c0 142 96 235 242 235c53 0 86 -11 105 -18v-53c-42 19 -72 23 -96 23c-115 0 -182 -77 -185 -157h232z" />
    <glyph glyph-name="guillemotright" unicode="&#xbb;" horiz-adv-x="434" 
d="M392 219l-150 -211l-42 28l131 183l-131 183l42 28zM238 219l-150 -211l-42 28l131 183l-131 183l42 28z" />
    <glyph glyph-name="afii10105" unicode="&#x458;" horiz-adv-x="208" 
d="M74 434h60v-644h-60v644zM58 581c0 26 20 46 46 46s46 -20 46 -46s-20 -46 -46 -46s-46 20 -46 46z" />
    <glyph glyph-name="afii10054" unicode="&#x405;" horiz-adv-x="521" 
d="M443 614l-54 -32c-17 39 -55 82 -126 82c-98 0 -125 -65 -125 -107c0 -80 79 -112 159 -150c75 -35 182 -80 182 -213c0 -119 -91 -214 -225 -214c-138 0 -201 97 -226 157l64 32c20 -59 71 -133 168 -133c88 0 147 67 147 154c0 89 -63 121 -157 165
c-86 40 -182 92 -182 200c0 62 35 165 192 165c53 0 139 -10 183 -106z" />
    <glyph glyph-name="afii10102" unicode="&#x455;" horiz-adv-x="382" 
d="M32 89l49 26c14 -43 50 -85 109 -85c66 0 91 43 91 86c0 54 -44 74 -103 92c-53 16 -126 37 -126 122c0 75 60 122 139 122c39 0 98 -11 135 -89l-45 -24c-17 41 -54 65 -95 65c-46 0 -74 -30 -74 -69c0 -46 37 -59 64 -69c97 -35 167 -52 167 -148
c0 -52 -33 -136 -159 -136c-39 0 -113 10 -152 107z" />
    <glyph glyph-name="afii10104" unicode="&#x457;" horiz-adv-x="244" 
d="M92 434h60v-434h-60v434zM15 581c0 26 20 46 46 46s46 -20 46 -46s-20 -46 -46 -46s-46 20 -46 46zM137 581c0 26 20 46 46 46s46 -20 46 -46s-20 -46 -46 -46s-46 20 -46 46z" />
    <glyph glyph-name="afii10017" unicode="&#x410;" horiz-adv-x="650" 
d="M11 0l314 720l314 -720h-70l-97 228h-294l-97 -228h-70zM202 284h246l-123 287z" />
    <glyph glyph-name="afii10018" unicode="&#x411;" horiz-adv-x="558" 
d="M88 0v700h352v-56h-284v-231h115c83 0 241 -17 241 -205c0 -202 -192 -208 -270 -208h-154zM156 56h97c157 0 189 84 189 152c0 151 -145 149 -172 149h-114v-301z" />
    <glyph glyph-name="afii10019" unicode="&#x412;" horiz-adv-x="564" 
d="M88 700h144c78 0 227 -9 227 -166c0 -74 -45 -130 -105 -153v-2c91 -6 161 -73 161 -179c0 -157 -131 -206 -243 -200h-184v700zM156 401h89c15 0 144 1 144 130c0 54 -31 113 -143 113h-90v-243zM156 56h116c134 0 173 77 173 144c0 146 -154 145 -176 145h-113v-289z
" />
    <glyph glyph-name="afii10020" unicode="&#x413;" horiz-adv-x="407" 
d="M88 0v700h308v-56h-240v-644h-68z" />
    <glyph glyph-name="afii10021" unicode="&#x414;" horiz-adv-x="638" 
d="M149 700h391v-644h84v-196h-63v140h-487v-140h-63v196c91 -6 138 101 138 278v366zM217 644v-310c0 -136 -13 -219 -81 -278h336v588h-255z" />
    <glyph glyph-name="afii10022" unicode="&#x415;" horiz-adv-x="519" 
d="M88 0v700h375v-56h-307v-224h296v-56h-296v-308h307v-56h-375z" />
    <glyph glyph-name="afii10024" unicode="&#x416;" horiz-adv-x="846" 
d="M389 0v343l-287 -343h-91l313 358l-295 342h84l276 -329v329h68v-329l276 329h84l-295 -342l313 -358h-91l-287 343v-343h-68z" />
    <glyph glyph-name="afii10025" unicode="&#x417;" horiz-adv-x="546" 
d="M104 579l-53 35c36 54 101 106 215 106c107 0 189 -72 189 -178c0 -81 -48 -142 -111 -159v-3c76 -14 146 -77 146 -186c0 -150 -122 -214 -242 -214c-105 0 -179 54 -227 148l58 30c26 -62 87 -122 169 -122c96 0 172 61 172 164c0 96 -71 152 -178 152h-71v56h69
c67 0 145 25 145 131c0 122 -112 125 -127 125c-53 0 -111 -14 -154 -85z" />
    <glyph glyph-name="afii10026" unicode="&#x418;" horiz-adv-x="722" 
d="M88 700h68v-554l478 582v-728h-68v554l-478 -582v728z" />
    <glyph glyph-name="afii10027" unicode="&#x419;" horiz-adv-x="722" 
d="M88 700h68v-554l478 582v-728h-68v554l-478 -582v728zM361 740c-44 0 -113 14 -144 89l55 22c9 -29 34 -59 89 -59s80 30 89 59l55 -22c-31 -75 -100 -89 -144 -89z" />
    <glyph glyph-name="afii10028" unicode="&#x41a;" horiz-adv-x="571" 
d="M88 0v700h68v-325l313 325h84l-332 -339l339 -361h-91l-313 340v-340h-68z" />
    <glyph glyph-name="afii10029" unicode="&#x41b;" horiz-adv-x="641" 
d="M164 700h389v-700h-68v644h-253v-377c0 -138 -18 -273 -170 -273c-6 0 -28 0 -55 6v56c9 -3 22 -6 38 -6c106 0 119 97 119 214v436z" />
    <glyph glyph-name="afii10030" unicode="&#x41c;" horiz-adv-x="858" 
d="M42 0l95 728l292 -624l292 624l95 -728h-63l-67 518l-257 -546l-257 546l-67 -518h-63z" />
    <glyph glyph-name="afii10031" unicode="&#x41d;" horiz-adv-x="715" 
d="M88 0v700h68v-287h403v287h68v-700h-68v357h-403v-357h-68z" />
    <glyph glyph-name="afii10032" unicode="&#x41e;" horiz-adv-x="868" 
d="M434 -20c-208 0 -378 149 -378 370s170 370 378 370s378 -149 378 -370s-170 -370 -378 -370zM434 36c171 0 306 130 306 314s-135 314 -306 314s-306 -130 -306 -314s135 -314 306 -314z" />
    <glyph glyph-name="afii10033" unicode="&#x41f;" horiz-adv-x="715" 
d="M88 700h539v-700h-68v644h-403v-644h-68v700z" />
    <glyph glyph-name="afii10034" unicode="&#x420;" horiz-adv-x="538" 
d="M88 0v700h194c75 0 210 -17 210 -185c0 -169 -136 -186 -210 -186h-126v-329h-68zM156 644v-259h123c50 0 143 11 143 130c0 131 -117 129 -143 129h-123z" />
    <glyph glyph-name="afii10035" unicode="&#x421;" horiz-adv-x="700" 
d="M672 140v-78c-80 -61 -176 -82 -255 -82c-214 0 -361 163 -361 370c0 219 163 370 361 370c72 0 159 -12 255 -84v-79c-90 88 -182 107 -253 107c-155 0 -291 -132 -291 -314c0 -168 119 -314 290 -314c96 0 187 41 254 104z" />
    <glyph glyph-name="afii10036" unicode="&#x422;" horiz-adv-x="464" 
d="M198 0v644h-187v56h442v-56h-187v-644h-68z" />
    <glyph glyph-name="afii10037" unicode="&#x423;" horiz-adv-x="561" 
d="M14 700h77l212 -417l189 417h69l-320 -700h-69l97 212z" />
    <glyph glyph-name="afii10038" unicode="&#x424;" horiz-adv-x="866" 
d="M399 0v98h-29c-227 0 -321 131 -321 273c0 164 123 273 321 273h29v84h68v-84h29c198 0 321 -109 321 -273c0 -142 -94 -273 -321 -273h-29v-98h-68zM467 588v-434c164 4 278 47 278 217c0 109 -51 214 -278 217zM399 154v434c-227 -3 -278 -108 -278 -217
c0 -170 114 -213 278 -217z" />
    <glyph glyph-name="afii10039" unicode="&#x425;" horiz-adv-x="506" 
d="M7 0l211 357l-195 343h76l154 -286l154 286h76l-195 -343l211 -357h-76l-170 304l-170 -304h-76z" />
    <glyph glyph-name="afii10040" unicode="&#x426;" horiz-adv-x="715" 
d="M88 0v700h68v-644h396v644h68v-644h84v-196h-63v140h-553z" />
    <glyph glyph-name="afii10041" unicode="&#x427;" horiz-adv-x="598" 
d="M442 0v315c-36 -3 -112 -7 -157 -7c-213 0 -215 97 -215 179v213h68v-198c0 -95 16 -138 158 -138c59 0 70 1 146 7v329h68v-700h-68z" />
    <glyph glyph-name="afii10042" unicode="&#x428;" horiz-adv-x="992" 
d="M88 0v700h68v-644h306v644h68v-644h306v644h68v-700h-816z" />
    <glyph glyph-name="afii10043" unicode="&#x429;" horiz-adv-x="1076" 
d="M88 0v700h68v-644h306v644h68v-644h306v644h68v-644h84v-196h-63v140h-837z" />
    <glyph glyph-name="afii10044" unicode="&#x42a;" horiz-adv-x="649" 
d="M178 0v644h-167v56h235v-294h116c201 0 241 -109 241 -201c0 -198 -193 -205 -270 -205h-155zM246 56h98c157 0 189 81 189 149c0 67 -31 145 -171 145h-116v-294z" />
    <glyph glyph-name="afii10045" unicode="&#x42b;" horiz-adv-x="746" 
d="M88 0v700h68v-294h117c86 0 240 -18 240 -201c0 -198 -192 -205 -269 -205h-156zM156 56h99c69 0 188 13 188 149c0 133 -113 145 -171 145h-116v-294zM590 0v700h68v-700h-68z" />
    <glyph glyph-name="afii10046" unicode="&#x42c;" horiz-adv-x="559" 
d="M88 0v700h68v-294h116c201 0 241 -109 241 -201c0 -198 -193 -205 -270 -205h-155zM156 56h98c157 0 189 81 189 149c0 148 -144 145 -172 145h-115v-294z" />
    <glyph glyph-name="afii10047" unicode="&#x42d;" horiz-adv-x="679" 
d="M42 36v76c55 -39 132 -76 219 -76c151 0 285 124 290 300h-425v56h423c-5 164 -146 272 -290 272c-77 0 -154 -26 -217 -77v75c74 45 143 58 220 58c205 0 361 -138 361 -370c0 -209 -144 -370 -361 -370c-66 0 -141 13 -220 56z" />
    <glyph glyph-name="afii10048" unicode="&#x42e;" horiz-adv-x="1054" 
d="M156 391h88c10 159 143 329 376 329c211 0 378 -149 378 -370s-167 -370 -378 -370c-259 0 -369 195 -377 355h-87v-335h-68v700h68v-309zM620 36c171 0 306 128 306 314s-135 314 -306 314c-169 0 -305 -127 -305 -314s136 -314 305 -314z" />
    <glyph glyph-name="afii10049" unicode="&#x42f;" horiz-adv-x="550" 
d="M70 0l190 311c-112 -2 -204 70 -204 188c0 63 31 201 242 201h164v-700h-68v308h-62l-185 -308h-77zM394 364v280h-95c-55 0 -173 -10 -173 -140c0 -132 111 -140 166 -140h102z" />
    <glyph glyph-name="afii10065" unicode="&#x430;" horiz-adv-x="562" 
d="M432 357v77h56v-434h-56v74c-35 -63 -98 -92 -160 -92c-138 0 -226 104 -226 235c0 135 92 235 227 235c49 0 116 -15 159 -95zM272 30c92 0 160 73 160 187c0 102 -62 187 -158 187c-95 0 -164 -79 -164 -187c0 -101 62 -187 162 -187z" />
    <glyph glyph-name="afii10066" unicode="&#x431;" horiz-adv-x="564" 
d="M104 345h3c33 68 104 107 182 107c127 0 223 -97 223 -235c0 -147 -100 -235 -232 -235c-177 0 -234 147 -234 298c0 203 57 342 228 384c91 23 148 17 180 71h64c-41 -91 -107 -98 -174 -113c-177 -40 -225 -106 -240 -277zM279 30c123 0 169 102 169 187
c0 93 -58 187 -169 187c-104 0 -169 -89 -169 -187c0 -96 61 -187 169 -187z" />
    <glyph glyph-name="afii10067" unicode="&#x432;" horiz-adv-x="459" 
d="M74 434h162c123 0 136 -73 136 -108c0 -33 -15 -76 -60 -94v-2c48 -6 94 -47 94 -107c0 -34 -11 -123 -156 -123h-176v434zM134 249h92c58 0 89 17 89 69c0 22 -4 68 -89 68h-92v-137zM134 48h111c35 0 98 6 98 73c0 32 -13 80 -95 80h-114v-153z" />
    <glyph glyph-name="afii10068" unicode="&#x433;" horiz-adv-x="327" 
d="M74 0v434h242v-48h-182v-386h-60z" />
    <glyph glyph-name="afii10069" unicode="&#x434;" horiz-adv-x="478" 
d="M113 434h281v-386h63v-160h-56v112h-331v-112h-56v160c93 6 99 98 99 174v212zM334 48v338h-161v-205c0 -57 -14 -102 -53 -133h214z" />
    <glyph glyph-name="afii10070" unicode="&#x435;" horiz-adv-x="515" 
d="M423 137l46 -23c-36 -72 -97 -132 -200 -132c-145 0 -223 118 -223 235c0 123 78 235 223 235c149 0 200 -128 200 -211v-29h-359c-2 -85 52 -182 159 -182c35 0 106 6 154 107zM115 260h294c-2 70 -51 144 -139 144c-82 0 -143 -59 -155 -144z" />
    <glyph glyph-name="afii10072" unicode="&#x436;" horiz-adv-x="628" 
d="M284 0v226l-196 -226h-77l210 232l-196 202h74l185 -197v197h60v-197l185 197h74l-196 -202l210 -232h-77l-196 226v-226h-60z" />
    <glyph glyph-name="afii10073" unicode="&#x437;" horiz-adv-x="431" 
d="M92 327l-46 30c53 89 130 95 173 95c84 0 147 -52 147 -130c0 -34 -16 -74 -76 -96v-2c40 -8 88 -41 88 -109c0 -93 -86 -133 -171 -133c-100 0 -156 49 -182 102l49 25c36 -68 93 -79 133 -79c61 0 107 32 107 89c0 78 -82 80 -100 80h-55v48h55c52 0 92 22 92 77
c0 78 -74 80 -90 80c-32 0 -81 -4 -124 -77z" />
    <glyph glyph-name="afii10074" unicode="&#x438;" horiz-adv-x="503" 
d="M74 434h60v-315l295 340v-459h-60v312l-295 -340v462z" />
    <glyph glyph-name="afii10075" unicode="&#x439;" horiz-adv-x="502" 
d="M74 434h60v-315l294 340v-459h-60v312l-294 -340v462zM258 518c-66 0 -125 39 -144 101l55 22c6 -24 25 -75 89 -75s83 51 89 75l55 -22c-19 -62 -78 -101 -144 -101z" />
    <glyph glyph-name="afii10076" unicode="&#x43a;" horiz-adv-x="428" 
d="M74 0v434h60v-194l194 194h72l-209 -202l226 -232h-77l-206 217v-217h-60z" />
    <glyph glyph-name="afii10077" unicode="&#x43b;" horiz-adv-x="475" 
d="M401 434v-434h-60v386h-186v-259c0 -66 -29 -129 -144 -127v48c77 -1 84 46 84 115v271h306z" />
    <glyph glyph-name="afii10078" unicode="&#x43c;" horiz-adv-x="602" 
d="M21 0l103 466l177 -382l177 382l103 -466h-60l-62 308l-158 -336l-158 336l-62 -308h-60z" />
    <glyph glyph-name="afii10079" unicode="&#x43d;" horiz-adv-x="512" 
d="M74 0v434h60v-188h244v188h60v-434h-60v198h-244v-198h-60z" />
    <glyph glyph-name="afii10080" unicode="&#x43e;" horiz-adv-x="564" 
d="M282 -18c-139 0 -236 100 -236 235s97 235 236 235s236 -100 236 -235s-97 -235 -236 -235zM282 30c93 0 172 74 172 187s-79 187 -172 187s-172 -74 -172 -187s79 -187 172 -187z" />
    <glyph glyph-name="afii10081" unicode="&#x43f;" horiz-adv-x="498" 
d="M74 434h350v-434h-60v386h-230v-386h-60v434z" />
    <glyph glyph-name="afii10082" unicode="&#x440;" horiz-adv-x="562" 
d="M74 434h56v-77c27 50 76 95 162 95c133 0 224 -95 224 -235c0 -132 -85 -235 -222 -235c-91 0 -138 53 -160 85v-277h-60v644zM294 30c100 0 158 82 158 187c0 87 -46 187 -166 187c-94 0 -156 -85 -156 -187c0 -122 80 -187 164 -187z" />
    <glyph glyph-name="afii10083" unicode="&#x441;" horiz-adv-x="457" 
d="M429 84v-63c-28 -17 -72 -39 -134 -39c-143 0 -249 97 -249 235c0 139 105 235 248 235c72 0 112 -21 135 -37v-59c-58 41 -95 48 -131 48c-119 0 -188 -85 -188 -187c0 -114 81 -187 182 -187c58 0 104 25 137 54z" />
    <glyph glyph-name="afii10084" unicode="&#x442;" horiz-adv-x="390" 
d="M165 0v386h-154v48h368v-48h-154v-386h-60z" />
    <glyph glyph-name="afii10085" unicode="&#x443;" horiz-adv-x="453" 
d="M11 434h68l163 -367l139 367h61l-256 -644h-65l90 214z" />
    <glyph glyph-name="afii10086" unicode="&#x444;" horiz-adv-x="670" 
d="M305 -210v203c-130 -1 -259 67 -259 224s129 225 259 224v259h60v-259c130 1 259 -67 259 -224s-129 -225 -259 -224v-203h-60zM365 393v-352c75 1 195 29 195 176s-120 175 -195 176zM305 41v352c-75 -1 -195 -29 -195 -176s120 -175 195 -176z" />
    <glyph glyph-name="afii10087" unicode="&#x445;" horiz-adv-x="417" 
d="M11 0l161 223l-154 211h77l116 -169l108 169h70l-144 -210l161 -224h-76l-123 182l-119 -182h-77z" />
    <glyph glyph-name="afii10088" unicode="&#x446;" horiz-adv-x="494" 
d="M74 0v434h60v-386h216v386h60v-386h70v-160h-56v112h-350z" />
    <glyph glyph-name="afii10089" unicode="&#x447;" horiz-adv-x="449" 
d="M315 0v175c-35 -5 -83 -10 -114 -10c-109 0 -141 38 -141 138v131h60v-131c0 -74 22 -91 97 -91c27 0 69 4 98 8v214h60v-434h-60z" />
    <glyph glyph-name="afii10090" unicode="&#x448;" horiz-adv-x="734" 
d="M74 0v434h60v-386h203v386h60v-386h203v386h60v-434h-586z" />
    <glyph glyph-name="afii10091" unicode="&#x449;" horiz-adv-x="745" 
d="M74 0v434h60v-386h203v386h60v-386h203v386h60v-386h71v-160h-56v112h-601z" />
    <glyph glyph-name="afii10092" unicode="&#x44a;" horiz-adv-x="462" 
d="M176 258h86c135 0 165 -70 165 -129c0 -100 -74 -129 -166 -129h-145v386h-105v48h165v-176zM176 48h81c33 0 106 0 106 81c0 78 -74 81 -105 81h-82v-162z" />
    <glyph glyph-name="afii10093" unicode="&#x44b;" horiz-adv-x="575" 
d="M134 258h86c57 0 165 -11 165 -129c0 -113 -95 -129 -166 -129h-145v434h60v-176zM134 48h81c33 0 106 0 106 81c0 78 -74 81 -105 81h-82v-162zM441 0v434h60v-434h-60z" />
    <glyph glyph-name="afii10094" unicode="&#x44c;" horiz-adv-x="420" 
d="M134 258h86c57 0 165 -11 165 -129c0 -113 -95 -129 -166 -129h-145v434h60v-176zM134 48h81c33 0 106 0 106 81c0 78 -74 81 -105 81h-82v-162z" />
    <glyph glyph-name="afii10095" unicode="&#x44d;" horiz-adv-x="421" 
d="M28 4v56c41 -27 73 -30 102 -30c138 0 177 101 181 169h-234v48h234c-7 60 -47 157 -188 157c-23 0 -53 -4 -95 -23v53c17 7 51 18 105 18c147 0 242 -93 242 -235c0 -167 -130 -235 -241 -235c-61 0 -95 17 -106 22z" />
    <glyph glyph-name="afii10096" unicode="&#x44e;" horiz-adv-x="732" 
d="M134 247h81c18 119 100 205 235 205c139 0 236 -101 236 -235c0 -135 -97 -235 -236 -235c-150 0 -234 114 -235 217h-81v-199h-60v434h60v-187zM450 30c113 0 172 97 172 187s-59 187 -172 187c-94 0 -171 -74 -171 -187s77 -187 171 -187z" />
    <glyph glyph-name="afii10097" unicode="&#x44f;" horiz-adv-x="428" 
d="M28 0l126 187c-56 6 -109 44 -109 121c0 60 33 126 153 126h156v-434h-60v182h-84l-115 -182h-67zM294 230v156h-87c-34 0 -102 -6 -102 -78s68 -78 102 -78h87z" />
    <glyph glyph-name="Euro" unicode="&#x20ac;" 
d="M505 670v-70c-31 32 -82 59 -154 59c-119 0 -177 -96 -190 -213h298l-18 -53h-286c-1 -11 -1 -28 -1 -41c0 -15 0 -31 1 -41h258l-17 -54h-234c15 -137 82 -215 190 -215c71 0 118 25 153 58v-70c-26 -24 -82 -49 -161 -49c-137 0 -224 88 -246 276h-70l18 54h46
c0 10 -1 28 -1 41c0 14 1 29 1 41h-64l18 53h51c19 156 91 274 248 274c75 0 132 -25 160 -50z" />
  </font>
</defs>
</svg>
